<svg width="932" height="932" viewBox="0 0 932 932" fill="none" xmlns="http://www.w3.org/2000/svg">
<g clip-path="url(#clip0_538_2)">
<path d="M604 711.5H332L304 691.5L298 645H269L256 621L248 564.5L269 537.5H298L304 491.5L326 467H604L629 491.5V537.5H660L683 554V621L660 645H629V691.5L604 711.5Z" fill="white"/>
<path fill-rule="evenodd" clip-rule="evenodd" d="M491.335 387.118L466.003 421.208L440.671 387.118H306.781V210H625.225V387.118H491.335Z" fill="#2D86FC"/>
<path d="M394.578 614.868C421.997 614.868 444.869 595.03 449.597 568.953H482.404C496.025 635.11 591.537 627.063 593.336 558.952C591.529 490.828 496.013 482.809 482.404 548.953H449.597C435.968 482.787 340.462 490.85 338.664 558.954C338.664 589.785 363.747 614.868 394.578 614.868ZM537.422 523.039C557.225 523.039 573.336 539.15 573.336 558.954C571.53 606.534 503.306 606.521 501.508 558.954C501.508 539.15 517.62 523.039 537.422 523.039ZM394.578 523.039C414.373 523.039 430.478 539.136 430.492 558.928V558.979C430.478 578.771 414.372 594.868 394.578 594.868C346.996 593.062 347.014 524.835 394.578 523.039Z" fill="black"/>
<path d="M687.339 549.331L666.933 528.925C665.057 527.05 662.514 525.996 659.862 525.996H639.253V487.531C639.253 484.879 638.199 482.335 636.324 480.46L615.918 460.054C614.042 458.179 611.499 457.125 608.847 457.125H323.157C320.505 457.125 317.961 458.178 316.086 460.054L295.679 480.46C293.804 482.335 292.75 484.879 292.75 487.531V525.996H272.14C269.488 525.996 266.944 527.05 265.069 528.925L244.663 549.331C242.788 551.206 241.734 553.75 241.734 556.402V622.724C241.734 625.376 242.788 627.92 244.663 629.795L265.069 650.202C266.944 652.077 269.488 653.131 272.14 653.131H292.749V691.596C292.749 694.248 293.803 696.792 295.678 698.667L316.085 719.074C317.96 720.949 320.504 722.003 323.156 722.003H608.846C611.498 722.003 614.041 720.949 615.917 719.074L636.323 698.668C638.198 696.793 639.252 694.249 639.252 691.597V653.132H659.861C662.513 653.132 665.056 652.078 666.932 650.203L687.338 629.797C689.213 627.922 690.267 625.378 690.267 622.726V556.404C690.268 553.75 689.214 551.207 687.339 549.331ZM327.298 477.125H604.703L619.252 491.673V656.088H517.267L504.931 637.584C503.077 634.802 499.954 633.131 496.611 633.131H435.392C432.048 633.131 428.926 634.802 427.072 637.584L414.736 656.088H312.75V491.673L327.298 477.125ZM276.282 633.131L261.734 618.582V560.544L276.282 545.996H292.749V633.13H276.282V633.131ZM604.704 702.002H327.298L312.749 687.453V676.087H420.086C423.43 676.087 426.552 674.416 428.406 671.634L440.742 653.13H491.258L503.594 671.634C505.448 674.416 508.571 676.087 511.914 676.087H619.251V687.453L604.704 702.002ZM670.268 618.582L655.719 633.13H639.252V545.996H655.719L670.268 560.544V618.582Z" fill="black"/>
<path d="M352.27 310.556C357.793 310.556 362.27 306.079 362.27 300.556V288.312C361.778 275.058 342.757 275.068 342.27 288.312V300.556C342.27 306.079 346.747 310.556 352.27 310.556Z" fill="black"/>
<path d="M397.762 337.724C403.285 337.724 407.762 333.247 407.762 327.724V261.148C407.27 247.894 388.249 247.904 387.762 261.148V327.724C387.762 333.247 392.239 337.724 397.762 337.724Z" fill="black"/>
<path d="M443.254 318.595C448.777 318.595 453.254 314.118 453.254 308.595V280.281C452.762 267.027 433.741 267.036 433.254 280.281V308.595C433.254 314.118 437.731 318.595 443.254 318.595Z" fill="black"/>
<path d="M488.746 327.013C494.268 327.013 498.746 322.536 498.746 317.013V271.863C498.254 258.609 479.233 258.619 478.746 271.863V317.012C478.746 322.536 483.223 327.013 488.746 327.013Z" fill="black"/>
<path d="M534.238 337.724C539.76 337.724 544.238 333.247 544.238 327.724V261.148C543.746 247.894 524.725 247.904 524.238 261.148V327.724C524.238 333.247 528.715 337.724 534.238 337.724Z" fill="black"/>
<path d="M579.73 310.556C585.252 310.556 589.73 306.079 589.73 300.556V288.312C589.238 275.058 570.217 275.068 569.73 288.312V300.556C569.73 306.079 574.208 310.556 579.73 310.556Z" fill="black"/>
</g>
<defs>
<clipPath id="clip0_538_2">
<rect width="512" height="512" fill="white" transform="translate(210 210)"/>
</clipPath>
</defs>
</svg>
